<svg width="486" height="738" viewBox="0 0 486 738" fill="none" xmlns="http://www.w3.org/2000/svg">
<g clip-path="url(#clip0_112_246)">
<path d="M54.5947 34.2189L54.5947 703.781H205.89L205.89 34.2189H54.5947Z" stroke="#161616" stroke-width="4"/>
<path d="M61.374 45.8604L61.374 337.25H107.048L107.048 45.8604H61.374Z" stroke="#161616" stroke-width="3"/>
<path d="M188 321.5C188 312.94 181.06 306 172.5 306C163.94 306 157 312.94 157 321.5C157 330.06 163.94 337 172.5 337C181.06 337 188 330.06 188 321.5Z" stroke="#161616" stroke-width="3"/>
<path d="M160 274C160 266.268 153.732 260 146 260C138.268 260 132 266.268 132 274C132 281.732 138.268 288 146 288C153.732 288 160 281.732 160 274Z" stroke="#161616" stroke-width="3"/>
<path d="M188 235C188 227.268 181.732 221 174 221C166.268 221 160 227.268 160 235C160 242.732 166.268 249 174 249C181.732 249 188 242.732 188 235Z" stroke="#161616" stroke-width="3"/>
<path d="M289.388 34.2189L289.388 703.781H440.683V34.2189H289.388Z" stroke="#161616" stroke-width="4"/>
<path d="M152 619V679H192V619H152Z" stroke="#161616" stroke-width="3"/>
<path d="M152 532V592H192V532H152Z" stroke="#161616" stroke-width="3"/>
<path d="M378 450V510H418V450H378Z" stroke="#161616" stroke-width="3"/>
<path d="M321 450V510H361V450H321Z" stroke="#161616" stroke-width="3"/>
<path d="M381 556H418V531H381V556Z" stroke="#161616" stroke-width="3"/>
<path d="M381 429H418V404H381V429Z" stroke="#161616" stroke-width="3"/>
<path d="M64 548L64 679H104V548H64Z" stroke="#161616" stroke-width="3"/>
<path d="M67 401V443H107V401H67Z" stroke="#161616" stroke-width="3"/>
<path d="M120 86H155V46L120 46V86Z" stroke="#161616" stroke-width="3"/>
<path d="M163 86H198V46L163 46V86Z" stroke="#161616" stroke-width="3"/>
<path d="M384 163.512V251H423.965V163.512H384Z" stroke="#161616" stroke-width="3"/>
<path d="M384 54.5124V142H423.965V54.5124H384Z" stroke="#161616" stroke-width="3"/>
<path d="M341 68H369V55H341V68Z" stroke="#161616" stroke-width="3"/>
<path d="M300 288V347H333V288H300Z" stroke="#161616" stroke-width="3"/>
<path d="M300 176V235H333V176H300Z" stroke="#161616" stroke-width="3"/>
<path d="M300 79V138H333V79H300Z" stroke="#161616" stroke-width="3"/>
<path d="M419.819 657.834C419.819 646.144 410.234 636.667 398.41 636.667C386.585 636.667 377 646.144 377 657.834C377 669.524 386.585 679 398.41 679C410.234 679 419.819 669.524 419.819 657.834Z" stroke="#161616" stroke-width="3"/>
<path d="M347.819 657.834C347.819 646.144 338.234 636.667 326.41 636.667C314.585 636.667 305 646.144 305 657.834C305 669.524 314.585 679 326.41 679C338.234 679 347.819 669.524 347.819 657.834Z" stroke="#161616" stroke-width="3"/>
<path d="M55.665 370.058H207.674" stroke="#161616" stroke-width="4"/>
<path d="M205.176 482.593V426.492" stroke="#161616" stroke-width="7"/>
<path d="M289.388 450.138V394.037" stroke="#161616" stroke-width="7"/>
<path d="M287.604 370.058H442.467" stroke="#161616" stroke-width="4"/>
<path d="M390.023 370.058H333.277" stroke="#161616" stroke-width="7"/>
<path d="M158.085 370.058H101.339" stroke="#161616" stroke-width="7"/>
<path d="M193 144C193 157.807 181.807 169 168 169C154.193 169 143 157.807 143 144C143 130.193 154.193 119 168 119C181.807 119 193 130.193 193 144Z" fill="#161616"/>
<path d="M162 152.464C162 151.728 162.056 151.04 162.168 150.4C162.296 149.76 162.528 149.128 162.864 148.504C163.216 147.88 163.704 147.248 164.328 146.608C164.952 145.968 165.776 145.28 166.8 144.544C167.376 144.144 167.848 143.784 168.216 143.464C168.6 143.144 168.904 142.84 169.128 142.552C169.352 142.264 169.512 141.976 169.608 141.688C169.704 141.4 169.752 141.088 169.752 140.752C169.752 140.352 169.696 140.016 169.584 139.744C169.472 139.472 169.312 139.256 169.104 139.096C168.912 138.936 168.68 138.824 168.408 138.76C168.136 138.696 167.848 138.664 167.544 138.664C166.824 138.664 166.256 138.872 165.84 139.288C165.424 139.688 165.216 140.424 165.216 141.496H162.216C162.216 139.768 162.664 138.424 163.56 137.464C164.472 136.488 165.752 136 167.4 136C168.2 136 168.928 136.096 169.584 136.288C170.256 136.48 170.824 136.768 171.288 137.152C171.768 137.536 172.136 138.024 172.392 138.616C172.664 139.192 172.8 139.872 172.8 140.656C172.8 141.264 172.72 141.816 172.56 142.312C172.4 142.808 172.136 143.296 171.768 143.776C171.416 144.256 170.944 144.744 170.352 145.24C169.76 145.736 169.04 146.288 168.192 146.896C167.584 147.344 167.072 147.832 166.656 148.36C166.24 148.872 166.016 149.336 165.984 149.752H172.848V152.464H162Z" fill="#F0F0F0"/>
<path d="M180 437C180 450.807 168.807 462 155 462C141.193 462 130 450.807 130 437C130 423.193 141.193 412 155 412C168.807 412 180 423.193 180 437Z" fill="#161616"/>
<path d="M154.264 444.936V433.92H151V431.76C151.688 431.76 152.264 431.704 152.728 431.592C153.192 431.48 153.568 431.312 153.856 431.088C154.16 430.848 154.384 430.56 154.528 430.224C154.688 429.872 154.792 429.464 154.84 429H157.384V444.936H154.264Z" fill="#F0F0F0"/>
<path d="M355 582C355 595.807 343.807 607 330 607C316.193 607 305 595.807 305 582C305 568.193 316.193 557 330 557C343.807 557 355 568.193 355 582Z" fill="#161616"/>
<path d="M329.104 580.128C329.776 580.128 330.32 580.072 330.736 579.96C331.168 579.832 331.496 579.672 331.72 579.48C331.96 579.272 332.12 579.04 332.2 578.784C332.296 578.512 332.344 578.232 332.344 577.944C332.344 577.144 332.176 576.536 331.84 576.12C331.52 575.704 331 575.496 330.28 575.496C329.672 575.496 329.168 575.728 328.768 576.192C328.368 576.64 328.168 577.28 328.168 578.112H325.264C325.264 577.344 325.384 576.648 325.624 576.024C325.88 575.4 326.232 574.864 326.68 574.416C327.144 573.968 327.688 573.624 328.312 573.384C328.952 573.128 329.648 573 330.4 573C331.088 573 331.728 573.104 332.32 573.312C332.928 573.52 333.456 573.816 333.904 574.2C334.352 574.584 334.704 575.048 334.96 575.592C335.216 576.12 335.344 576.704 335.344 577.344C335.344 578.064 335.184 578.752 334.864 579.408C334.56 580.048 334.096 580.552 333.472 580.92C334.24 581.24 334.824 581.728 335.224 582.384C335.64 583.024 335.848 583.848 335.848 584.856C335.848 585.656 335.712 586.376 335.44 587.016C335.168 587.656 334.784 588.2 334.288 588.648C333.792 589.08 333.2 589.416 332.512 589.656C331.824 589.896 331.064 590.016 330.232 590.016C328.568 590.016 327.28 589.552 326.368 588.624C325.456 587.696 325 586.416 325 584.784H328C328 585.712 328.2 586.392 328.6 586.824C329 587.24 329.592 587.448 330.376 587.448C331.032 587.448 331.576 587.224 332.008 586.776C332.44 586.312 332.656 585.656 332.656 584.808C332.656 583.88 332.384 583.232 331.84 582.864C331.312 582.496 330.4 582.312 329.104 582.312V580.128Z" fill="#F0F0F0"/>
<path d="M409 328C409 341.807 397.807 353 384 353C370.193 353 359 341.807 359 328C359 314.193 370.193 303 384 303C397.807 303 409 314.193 409 328Z" fill="#161616"/>
<path d="M384.264 324.416L381 330.032H384.264V324.416ZM384.192 335.936V332.456H378V329.744L383.808 320H387.312V330.032H389.112V332.456H387.312V335.936H384.192Z" fill="#F0F0F0"/>
<mask id="path-35-inside-1_112_246" fill="white">
<path d="M207 573L207 132H288V573H207Z"/>
</mask>
<path d="M207 132V136H288V132V128H207V132ZM288 573V569H207V573V577H288V573Z" fill="#161616" mask="url(#path-35-inside-1_112_246)"/>
</g>
<defs>
<clipPath id="clip0_112_246">
<rect width="738" height="486" fill="white" transform="matrix(0 -1 1 0 0 738)"/>
</clipPath>
</defs>
</svg>
