<svg width="300" height="253" viewBox="0 0 300 253" fill="none" xmlns="http://www.w3.org/2000/svg">
<g clip-path="url(#clip0_36_2949)">
<rect width="300" height="253" fill="#DCB4FE"/>
<path d="M42.4926 364.767L27 348.858L38.1691 274.748L48.9779 271.256H61.2279L88.6103 247.199L89.3309 204.905L65.1912 188.609L115.993 159.508L113.831 112.946L130.765 93.5457V80.3533L113.831 68.7129V40H122.478L149.86 59.4006L184.449 40L190.934 42.7161L189.132 70.653L174.36 81.9054V93.5457L189.132 112.946L178.684 156.792L244.618 190.161L219.037 204.905V246.035L253.985 274.748H268.037L272 348.858L252.184 367.871L237.051 348.858V329.069L203.184 305.401L216.515 464.874L211.471 473.41L189.132 435.773L172.199 519.584L163.912 532L159.588 478.842L144.456 450.129L122.478 508.331L112.029 521.524L108.066 483.886H85.7279L97.2573 284.448L75.2794 305.401V338.77L42.4926 364.767Z" fill="#A743FB"/>
</g>
<defs>
<clipPath id="clip0_36_2949">
<rect width="300" height="253" fill="white"/>
</clipPath>
</defs>
</svg>
