<svg width="164" height="164" viewBox="0 0 164 164" fill="none" xmlns="http://www.w3.org/2000/svg">
<g clip-path="url(#clip0_29_2103)">
<rect width="164" height="164" rx="82" fill="#DCB4FE"/>
<path d="M73.3656 68.015L67.0522 73.2787L63.1528 25.5657L61.2959 26.5845L54.0542 78.882L64.6383 95.0128V105.201H54.0542L34 129.142V150.027L48.2979 167.856L54.7969 151.555L41.9845 138.481L55.911 129.142L67.0522 150.027V165.309L50.1547 235.775L52.0116 237.642L77.0793 248L108.089 235.775L90.2631 167.856V152.404L97.8762 127.104L111.988 138.481L104.747 151.555L111.988 168.705L114.402 169.893L129.257 153.083L130 131.859L103.261 105.88L91.1915 105.201L93.6054 98.0691L108.646 80.2404L104.19 25.5657L101.404 26.5845L97.8762 68.864L91.1915 73.2787L86.3636 68.015L83.207 22L80.9787 22.849L73.3656 68.015Z" fill="#A743FB"/>
</g>
<defs>
<clipPath id="clip0_29_2103">
<rect width="164" height="164" rx="82" fill="white"/>
</clipPath>
</defs>
</svg>
