<svg width="110" height="260" viewBox="0 0 110 260" fill="none" xmlns="http://www.w3.org/2000/svg">
<path d="M45.1064 52.9376L37.8723 58.9932L33.4043 4.10218L31.2766 5.27423L22.9787 65.4395L35.1064 83.997V95.7175H22.9787L0 123.261V147.288L16.383 167.799L23.8298 149.046L9.14894 134.005L25.1064 123.261L37.8723 147.288V164.869L18.5106 245.935L20.6383 248.084L49.3617 260L84.8936 245.935L64.4681 167.799V150.023L73.1915 120.917L89.3617 134.005L81.0638 149.046L89.3617 168.775L92.1277 170.143L109.149 150.804L110 126.386L79.3617 96.4989L65.5319 95.7175L68.2979 87.5132L85.5319 67.0023L80.4255 4.10218L77.234 5.27423L73.1915 53.9144L65.5319 58.9932L60 52.9376L56.383 0L53.8298 0.976709L45.1064 52.9376Z" fill="#A743FB"/>
</svg>
