<svg width="164" height="164" viewBox="0 0 164 164" fill="none" xmlns="http://www.w3.org/2000/svg">
<g clip-path="url(#clip0_29_2100)">
<rect width="164" height="164" rx="82" fill="#DCB4FE"/>
<path d="M26.9676 191.004L19 182.823L24.7441 144.714L30.3029 142.918H36.6029L50.6853 130.547L51.0559 108.799L38.6412 100.419L64.7676 85.4543L63.6559 61.511L72.3647 51.5347V44.7508L63.6559 38.765V24H68.1029L82.1853 33.9763L99.9735 24L103.309 25.3967L102.382 39.7626L94.7853 45.5489V51.5347L102.382 61.511L97.0088 84.0576L130.918 101.217L117.762 108.799V129.949L135.735 144.714H142.962L145 182.823L134.809 192.6L127.026 182.823V172.647L109.609 160.476L116.465 242.482L113.871 246.871L102.382 227.517L93.6735 270.615L89.4118 277L87.1882 249.665L79.4059 234.9L68.1029 264.829L62.7294 271.613L60.6912 252.259H49.2029L55.1324 149.702L43.8294 160.476V177.636L26.9676 191.004Z" fill="#A743FB"/>
</g>
<defs>
<clipPath id="clip0_29_2100">
<rect width="164" height="164" rx="82" fill="white"/>
</clipPath>
</defs>
</svg>
