<svg width="300" height="253" viewBox="0 0 300 253" fill="none" xmlns="http://www.w3.org/2000/svg">
<g clip-path="url(#clip0_36_2951)">
<rect width="300" height="253" fill="#DCB4FE"/>
<path d="M136.329 98.8911L126.333 107.229L120.159 31.6484L117.219 33.2622L105.752 116.105L122.511 141.657V157.796H105.752L74 195.721V228.804L96.6383 257.046L106.928 231.225L86.6422 210.514L108.692 195.721L126.333 228.804V253.011L99.5783 364.634L102.518 367.593L142.209 384L191.308 364.634L163.083 257.046V232.569L175.137 192.493L197.482 210.514L186.015 231.225L197.482 258.391L201.304 260.273L224.824 233.645L226 200.024L183.663 158.872L164.553 157.796L168.375 146.499L192.19 118.257L185.133 31.6484L180.723 33.2622L175.137 100.236L164.553 107.229L156.909 98.8911L151.911 26L148.383 27.3449L136.329 98.8911Z" fill="#A743FB"/>
</g>
<defs>
<clipPath id="clip0_36_2951">
<rect width="300" height="253" fill="white"/>
</clipPath>
</defs>
</svg>
